<svg width="24" height="24" viewBox="0 0 24 24" fill="none" xmlns="http://www.w3.org/2000/svg">
<path d="M4.38281 1.57031C3.36094 1.85156 2.48906 2.76562 2.27344 3.77812C2.2125 4.05469 2.20312 5.41406 2.20312 13.1625C2.20312 19.5656 2.21719 22.2516 2.25469 22.3219C2.31094 22.425 2.56406 22.5469 2.72813 22.5469C3.13594 22.5469 3.49219 22.2562 3.88125 21.6141C4.29375 20.9344 4.33125 20.9344 4.73438 21.6C5.175 22.3266 5.41406 22.5141 5.8875 22.5187C6.38906 22.5187 6.60938 22.3359 7.11094 21.4922C7.26562 21.2391 7.36875 21.1125 7.43438 21.1031C7.55625 21.0844 7.72031 21.2672 7.92188 21.6516C8.24063 22.2469 8.5875 22.5141 9.04688 22.5141C9.51563 22.5141 9.86719 22.2422 10.1953 21.6187C10.2891 21.4406 10.4156 21.2437 10.4813 21.1828C10.6359 21.0375 10.7625 21.1078 10.9641 21.45C11.3953 22.1953 11.6156 22.4203 12.0047 22.5047C12.4688 22.6125 12.9609 22.3125 13.2891 21.7312C13.5141 21.3281 13.5047 21.2484 13.2 20.9062C12.4359 20.0531 12.0703 18.6141 12.3188 17.4281C12.6562 15.8062 13.9031 14.5219 15.4969 14.1516L15.9375 14.0531L15.9469 8.74687L15.9609 3.44531L16.0875 3.07031C16.2516 2.59219 16.5 2.175 16.8422 1.8L17.1188 1.5L10.8656 1.50469C5.75625 1.50937 4.575 1.51875 4.38281 1.57031ZM13.3547 4.99687C13.4813 5.16094 13.4766 5.26406 13.3406 5.42344L13.2281 5.55469H9.47344H5.72344L5.62031 5.45156C5.47969 5.31094 5.47969 5.07656 5.62031 4.95937C5.72344 4.87969 5.90625 4.875 9.49219 4.875H13.2609L13.3547 4.99687ZM14.7703 10.2984C14.9109 10.4391 14.9109 10.6734 14.7703 10.7906C14.6672 10.8703 14.4469 10.875 9.46406 10.875C4.32656 10.875 4.26562 10.875 4.17188 10.7812C4.07813 10.6875 4.05 10.5281 4.10625 10.3828C4.19063 10.1719 4.13906 10.1719 9.54844 10.1859L14.6672 10.1953L14.7703 10.2984ZM14.4422 13.2047C14.5828 13.3453 14.5828 13.5797 14.4422 13.6969C14.3391 13.7766 14.1234 13.7812 9.30469 13.7812H4.27031L4.17656 13.6594C4.04063 13.4906 4.05469 13.3781 4.21406 13.2141L4.35469 13.0781L9.34688 13.0875L14.3391 13.1016L14.4422 13.2047ZM11.6766 16.0453C11.7984 16.1391 11.8641 16.3031 11.8313 16.4297C11.7656 16.6969 11.925 16.6875 7.96406 16.6875C4.35469 16.6875 4.32188 16.6875 4.2 16.5891C4.03125 16.4578 4.03125 16.2141 4.2 16.0828C4.32188 15.9844 4.35469 15.9844 7.96406 15.9844C10.7484 15.9891 11.6203 15.9984 11.6766 16.0453ZM11.4844 18.9844C11.6109 19.1109 11.6063 19.3641 11.4797 19.4812C11.3859 19.5656 11.2547 19.5703 7.81875 19.5703H4.25625L4.16719 19.4578C4.05 19.3125 4.05469 19.1344 4.18125 18.9984L4.27969 18.8906H7.8375C11.3297 18.8906 11.3906 18.8906 11.4844 18.9844Z" fill="white"/>
<path d="M18.4125 1.59209C17.6719 1.83115 17.0344 2.46396 16.7719 3.22334L16.6641 3.54209V8.79209V14.0421L16.9594 14.0749C17.1188 14.0937 17.2969 14.1218 17.3438 14.1358C17.4375 14.164 17.4375 14.1312 17.4375 12.1952V10.2265L17.6063 10.1468C17.8172 10.0437 17.9953 9.80459 18.2625 9.24678C18.375 9.0124 18.4875 8.81553 18.5063 8.81553C18.5297 8.81553 18.6422 9.02178 18.7641 9.27021C19.1109 10.0062 19.35 10.2218 19.8047 10.2218C20.2125 10.2218 20.4797 9.97803 20.7797 9.33115C21.0188 8.81084 21.0188 8.81084 21.1922 8.89521C21.3609 8.97959 21.5813 8.9374 21.6797 8.80146C21.7828 8.65615 21.7828 3.72021 21.6844 3.34521C21.4734 2.54834 20.8781 1.9249 20.0484 1.63896C19.7156 1.52178 19.5938 1.50303 19.1719 1.50771C18.8297 1.50771 18.6 1.53584 18.4125 1.59209Z" fill="white"/>
<path d="M15.5861 14.8608C14.583 15.1233 13.7908 15.7562 13.3408 16.6562C13.0408 17.2608 12.9658 17.5796 12.9658 18.2593C12.9705 18.9202 13.0455 19.2577 13.3174 19.8108C13.7486 20.6921 14.4846 21.3062 15.4689 21.6202C15.9236 21.7608 16.8658 21.7749 17.3439 21.6437C18.5627 21.3155 19.5096 20.3593 19.8377 19.1312C19.9596 18.6624 19.9689 17.8749 19.8564 17.4155C19.6736 16.6937 19.1861 15.939 18.6143 15.4983C18.2439 15.2124 17.6393 14.9265 17.2268 14.8374C16.7674 14.7437 15.9939 14.753 15.5861 14.8608ZM18.5111 16.5952C18.6518 16.6702 18.7221 16.8952 18.6471 17.0312C18.5299 17.2562 16.2424 19.8718 16.1158 19.9233C16.0502 19.9562 15.9518 19.9655 15.9049 19.9515C15.858 19.9374 15.4549 19.5577 15.0096 19.1124C14.1424 18.2405 14.1096 18.1796 14.3018 17.9358C14.3674 17.8515 14.4424 17.814 14.5408 17.814C14.6674 17.814 14.7846 17.9077 15.3377 18.4562C15.6893 18.8077 15.9893 19.089 15.9986 19.0749C16.458 18.5218 18.1549 16.5952 18.1971 16.5812C18.2955 16.539 18.4221 16.5437 18.5111 16.5952Z" fill="white"/>
<path d="M1.5 22.1007C1.5 22.1336 1.5375 22.1945 1.58438 22.2367C1.6875 22.3304 1.92188 22.3914 1.92188 22.3211C1.92188 22.2929 1.87969 22.2695 1.82812 22.2695C1.77188 22.2695 1.67813 22.2179 1.61719 22.1523C1.54688 22.0867 1.5 22.0632 1.5 22.1007Z" fill="white"/>
</svg>
