<svg width="24" height="24" viewBox="0 0 24 24" fill="none" xmlns="http://www.w3.org/2000/svg">
<g clip-path="url(#clip0_20788_783091)">
<path d="M11.6716 0.688433C10.5841 0.819683 9.77318 1.27437 9.15443 2.10875C8.96224 2.37124 0.651305 17.6103 0.32318 18.3087C0.0513046 18.8759 -0.0143205 19.2228 0.0138045 19.9212C0.027867 20.3853 0.0606795 20.5869 0.15443 20.8822C0.449742 21.7869 1.07787 22.5181 1.93099 22.9447C2.74193 23.3525 1.90755 23.3197 11.9997 23.3197C22.0919 23.3197 21.2576 23.3525 22.0685 22.9447C22.9216 22.5181 23.5451 21.7869 23.8451 20.8822C23.9435 20.5822 23.9716 20.3853 23.9857 19.9212C24.0138 19.2228 23.9482 18.8759 23.6763 18.3087C23.3529 17.615 15.0372 2.37124 14.8451 2.10875C14.3247 1.41031 13.5326 0.894682 12.7638 0.754057C12.4638 0.697807 11.8779 0.660307 11.6716 0.688433ZM12.4872 6.56187C12.8107 6.68374 13.0966 6.96031 13.256 7.30249L13.3826 7.56968V11.3197C13.3826 15.5431 13.3966 15.3462 13.0263 15.7681C12.4779 16.3916 11.5216 16.3916 10.9732 15.7681C10.6029 15.3462 10.6169 15.5431 10.6169 11.3197V7.56968L10.7435 7.30249C11.0622 6.61812 11.7935 6.30406 12.4872 6.56187ZM12.4872 17.8119C13.3638 18.14 13.6451 19.2791 13.0263 19.9869C12.4779 20.6103 11.5216 20.6103 10.9732 19.9869C10.0451 18.9275 11.1654 17.3197 12.4872 17.8119Z" fill="white"/>
</g>
<defs>
<clipPath id="clip0_20788_783091">
<rect width="24" height="24" fill="white"/>
</clipPath>
</defs>
</svg>
