<svg width="24" height="16" viewBox="0 0 24 16" fill="none" xmlns="http://www.w3.org/2000/svg">
<path d="M7.23465 0.0168953C5.37371 0.12002 3.58309 0.940332 2.23309 2.31377C0.62996 3.94502 -0.13879 6.05908 0.0205853 8.38408C0.27371 12.0075 2.97371 14.9278 6.59715 15.5044C7.12684 15.5888 8.36902 15.6028 8.80496 15.5278C8.95965 15.5044 9.10496 15.481 9.1284 15.481C9.15184 15.481 8.88934 15.1903 8.54246 14.8388C7.86277 14.145 7.64715 13.8825 7.18777 13.1841C6.25027 11.7591 5.59402 9.67783 5.59402 8.13565V7.79346L4.58621 7.78408L3.5784 7.77002L5.13465 6.20908L6.69559 4.65283L8.2659 6.22315L9.83621 7.79346H8.80496H7.77371L7.80652 8.3419C7.88152 9.69658 8.31277 10.9716 9.09559 12.1528C9.59246 12.8981 10.4737 13.7794 11.219 14.2763C12.705 15.2606 14.2753 15.6731 16.1315 15.5653C19.9659 15.3497 23.0831 12.2513 23.355 8.38408C23.6268 4.46065 21.0909 1.02471 17.2987 0.17627C16.455 -0.0112295 15.105 -0.0534172 14.3925 0.0825205L14.2096 0.12002L14.8143 0.734082C15.7471 1.68096 16.2534 2.38408 16.7784 3.46221C17.3784 4.69033 17.7815 6.28877 17.7815 7.45127V7.79346L18.7893 7.80283L19.7971 7.8169L18.2362 9.37783L16.6753 10.9388L15.1378 9.36846L13.6003 7.79346H14.5987H15.6018L15.569 7.24033C15.5034 6.0169 15.1003 4.74658 14.4393 3.6919C13.2487 1.77471 11.3034 0.466895 9.11434 0.105958C8.47684 0.00283241 7.97527 -0.0206051 7.23465 0.0168953Z" fill="white"/>
</svg>
