<svg width="24" height="24" viewBox="0 0 24 24" fill="none" xmlns="http://www.w3.org/2000/svg">
<path d="M11.5219 1.83437C10.1531 1.97969 8.87344 2.86562 8.26406 4.10312C7.94531 4.73594 7.82812 5.26562 7.82812 6.025C7.83281 7.90469 9.09844 9.53594 10.9453 10.0375C11.25 10.1219 11.4469 10.1406 12 10.1406C12.5531 10.1406 12.75 10.1219 13.0547 10.0375C14.9016 9.53594 16.1672 7.90469 16.1719 6.025C16.1719 5.47656 16.1109 5.07344 15.975 4.67031C15.4313 3.08594 14.0813 2.00781 12.4172 1.82969C12.1734 1.80625 11.9578 1.7875 11.9297 1.79219C11.9062 1.79219 11.7188 1.81094 11.5219 1.83437Z" fill="white"/>
<path d="M4.19112 5.71406C3.53487 5.82187 2.97706 6.10781 2.48019 6.60469C1.89425 7.19062 1.60831 7.8375 1.56144 8.67187C1.463 10.4531 2.89269 11.9531 4.688 11.9531C5.45675 11.9531 6.21612 11.6578 6.77862 11.1422C7.9505 10.0687 8.15675 8.39531 7.28019 7.06875C6.88644 6.47344 6.18331 5.97187 5.48956 5.78906C5.13331 5.7 4.51925 5.6625 4.19112 5.71406Z" fill="white"/>
<path d="M18.9143 5.70059C17.4706 5.93496 16.3971 7.01309 16.2096 8.41934C16.1112 9.14121 16.2846 9.90059 16.6831 10.5147C17.5596 11.8553 19.2753 12.3334 20.6956 11.6303C21.3565 11.3022 21.8065 10.8475 22.1299 10.1912C22.3784 9.67559 22.4674 9.23965 22.4393 8.67246C22.3924 7.83809 22.1065 7.19121 21.5206 6.60528C20.9346 6.02403 20.3018 5.73809 19.4862 5.70059C19.2471 5.69121 18.994 5.69121 18.9143 5.70059Z" fill="white"/>
<path d="M9.43131 11.0156C8.62506 11.1281 8.02037 11.4281 7.42506 12.0234C7.0735 12.3703 6.961 12.5203 6.78756 12.8766C6.38443 13.6734 6.3985 13.5187 6.3985 17.8594C6.3985 21.6187 6.3985 21.6844 6.49225 21.8438C6.5485 21.9328 6.661 22.0453 6.75006 22.1016C6.91412 22.1953 6.97037 22.1953 12.0001 22.1953C17.0297 22.1953 17.086 22.1953 17.2501 22.1016C17.3391 22.0453 17.4516 21.9328 17.5079 21.8438C17.6016 21.6844 17.6016 21.6187 17.6016 17.8594C17.6016 13.5187 17.6157 13.6734 17.2126 12.8766C16.9219 12.2953 16.336 11.6953 15.7641 11.4C14.9907 11.0016 14.9813 10.9969 12.1876 10.9875C10.8329 10.9828 9.59537 10.9969 9.43131 11.0156Z" fill="white"/>
<path d="M2.81764 12.8484C1.73951 13.0594 0.848889 13.7391 0.352014 14.7281C0.000451576 15.4312 -0.00423592 15.4875 0.00982658 18.2391L0.0238891 20.6531L0.197327 21.0047C0.417639 21.4547 0.727014 21.7641 1.15826 21.9703C1.61764 22.1906 1.86608 22.2141 3.65201 22.2188H5.16608L5.12858 22.0406C5.10514 21.9469 5.08639 20.0297 5.08639 17.7891V13.7109L5.1942 13.3266C5.25045 13.1156 5.31139 12.9094 5.32545 12.8719C5.35358 12.8062 5.2317 12.7969 4.19108 12.8016C3.54889 12.8062 2.93014 12.825 2.81764 12.8484Z" fill="white"/>
<path d="M18.6757 12.8672C18.6898 12.9094 18.7507 13.1156 18.807 13.3266L18.9148 13.7109V17.7891C18.9148 20.0297 18.896 21.9469 18.8726 22.0453L18.8351 22.2188H20.3492C22.1351 22.2141 22.3835 22.1906 22.8429 21.9703C23.2742 21.7641 23.5835 21.4547 23.8038 21.0047L23.9773 20.6531L23.9913 18.2391C24.0054 15.4875 24.0007 15.4312 23.6492 14.7281C23.2085 13.8516 22.5054 13.2516 21.5398 12.9328C21.2351 12.8344 21.1132 12.825 19.9273 12.8062C18.746 12.7922 18.6476 12.7969 18.6757 12.8672Z" fill="white"/>
</svg>
