<svg width="20" height="20" viewBox="0 0 20 20" fill="none" xmlns="http://www.w3.org/2000/svg">
<path d="M2.42969 1.97363C2.20703 2.08301 2.05469 2.24316 1.94922 2.47754C1.88281 2.62598 1.875 2.80566 1.875 5.40723V8.18066L1.96875 8.37988C2.08203 8.62598 2.33984 8.84863 2.59375 8.92285C2.87109 9.00488 4.62891 9.00488 4.90625 8.92285C5.16016 8.84863 5.41797 8.62598 5.53125 8.37988L5.625 8.18066V5.40723C5.625 2.80566 5.61719 2.62598 5.55078 2.47754C5.44531 2.24316 5.29297 2.08301 5.07031 1.97363L4.86719 1.87207H3.75H2.63281L2.42969 1.97363Z" fill="white"/>
<path d="M7.6329 1.95324C7.41025 2.06261 7.23056 2.25011 7.12509 2.48058L7.03134 2.67589V6.64464C7.03134 10.9923 7.01962 10.8048 7.26181 11.0978C7.32431 11.172 7.46884 11.2853 7.58212 11.3478L7.79306 11.465L8.83603 11.4767C10.1095 11.4923 10.2188 11.4728 10.5313 11.1603C10.879 10.8126 10.8595 11.09 10.8595 6.66027C10.8595 2.35949 10.8712 2.54699 10.5977 2.23058C10.5196 2.13683 10.3634 2.01964 10.2579 1.96886C10.0626 1.87902 10.0313 1.87511 8.92587 1.87511C7.86728 1.87511 7.78134 1.87902 7.6329 1.95324Z" fill="white"/>
<path d="M12.8672 1.96722C12.7618 2.018 12.6055 2.13519 12.5274 2.22894C12.25 2.54925 12.2657 2.24456 12.2657 7.74066V12.6938H11.4493C10.668 12.6938 10.6329 12.6977 10.504 12.7836C10.2383 12.9594 10.1368 13.2367 10.2227 13.5532C10.25 13.6469 13.5743 17.8305 13.7657 18.0024C13.9063 18.1352 14.2891 18.1664 14.4805 18.0649C14.5704 18.0141 15.168 17.2992 16.3165 15.8617C17.254 14.6899 18.0469 13.6782 18.0782 13.6196C18.1641 13.4477 18.1485 13.1508 18.0469 12.9867C17.8829 12.7211 17.7657 12.6938 16.8555 12.6938H16.0547V7.68206V2.67425L15.961 2.47894C15.8633 2.26409 15.6094 2.01409 15.4063 1.92816C15.3047 1.88519 15.0313 1.87347 14.1719 1.87347C13.0938 1.87347 13.0625 1.87737 12.8672 1.96722Z" fill="white"/>
</svg>
