<svg width="20" height="20" viewBox="0 0 20 20" fill="none" xmlns="http://www.w3.org/2000/svg">
<path d="M4.15625 1.55857C4.05859 1.60154 3.94531 1.74998 3.94531 1.83592C3.94531 1.8867 4.53125 4.17967 4.55469 4.21092C4.55859 4.21873 4.66797 4.18748 4.80078 4.1406C5.03125 4.06639 5.11328 4.06248 8.13281 4.06248H11.2305L11.4648 4.16404C11.5938 4.21482 11.7148 4.2656 11.7344 4.26951C11.7734 4.27732 12.2617 2.05076 12.2656 1.85154C12.2656 1.77342 12.2305 1.6992 12.1641 1.6367C12.0742 1.55467 12.0312 1.54295 11.7656 1.54685C11.4141 1.55467 11.1797 1.62889 10.8359 1.83982C10.5078 2.03904 10.3438 2.10545 10.0977 2.13279C9.80859 2.16795 9.55078 2.09373 9.23438 1.8906C8.86719 1.65232 8.55859 1.56248 8.10938 1.56248C7.59375 1.56248 7.35547 1.6367 6.92578 1.92576C6.48047 2.22654 5.99609 2.21092 5.45312 1.88279C5.28125 1.77732 5.05078 1.66014 4.94141 1.62889C4.69531 1.55076 4.26562 1.5156 4.15625 1.55857Z" fill="white"/>
<path d="M4.90251 4.72028C4.21501 5.03669 4.34392 6.09137 5.09001 6.24762C5.23454 6.27497 6.18376 6.28669 8.24626 6.27887C11.172 6.26716 11.1916 6.26716 11.3478 6.18512C11.633 6.03278 11.758 5.80622 11.758 5.45075C11.758 5.09137 11.6174 4.86481 11.3088 4.72028C11.1603 4.64997 10.9884 4.64606 8.10563 4.64606C5.22673 4.64606 5.05095 4.64997 4.90251 4.72028Z" fill="white"/>
<path d="M4.59759 6.82363C4.42181 7.15957 1.50384 13.2494 1.44134 13.4057C1.2265 13.9486 1.19134 14.9369 1.35931 15.5268C1.75384 16.8783 2.88665 17.9564 4.32415 18.3471L4.70697 18.4525L7.75384 18.4682C10.9413 18.4838 11.4023 18.4643 11.9765 18.3197C12.3749 18.2143 13.0702 17.8744 13.4062 17.6205C13.7304 17.3744 14.0976 17.0033 14.289 16.7221C14.4296 16.5228 14.4335 16.4994 14.4335 16.1752V15.8393L14.1093 15.2611L13.7812 14.683L13.9452 14.015C14.1913 13.0072 14.164 12.9252 13.3163 12.2143C12.8632 11.8353 12.7929 11.7572 12.7812 11.6478C12.7734 11.5775 12.832 11.2103 12.9101 10.8314C13.0156 10.3432 13.0507 10.0814 13.039 9.92519C13.0234 9.73769 12.9179 9.48769 12.3007 8.21035C11.7382 7.03457 11.5702 6.72207 11.5234 6.7416C11.3163 6.83144 10.7577 6.85097 8.00775 6.85097C5.17962 6.85097 4.97259 6.84316 4.71868 6.73769C4.67181 6.71816 4.63665 6.7416 4.59759 6.82363ZM8.30072 9.58925C8.36322 9.64785 8.39837 9.72988 8.39837 9.8041V9.92129H8.82415C9.33197 9.92129 9.42962 9.96816 9.42962 10.2143C9.42962 10.4603 9.33197 10.5072 8.82415 10.5072H8.39837V11.2807V12.0502L8.63275 12.0971C9.09759 12.183 9.44525 12.4525 9.63275 12.8666C9.7265 13.0658 9.74212 13.1557 9.74212 13.4369C9.74603 13.7143 9.7265 13.8041 9.64056 13.9877C9.44134 14.4174 9.10931 14.6752 8.64447 14.765C8.42962 14.808 8.39837 14.8236 8.39837 14.9018C8.39837 15.0463 8.35931 15.1166 8.23822 15.1752C8.05072 15.2728 7.81243 15.1127 7.81243 14.8939C7.81243 14.808 7.80462 14.8041 7.40618 14.8041C7.05853 14.8041 6.98822 14.7924 6.89837 14.7221C6.76947 14.6205 6.75775 14.4135 6.87493 14.2963C6.94525 14.226 7.00384 14.2182 7.38275 14.2182H7.81243V13.4447V12.6713L7.53509 12.6088C7.08587 12.4994 6.82025 12.2963 6.59759 11.8744C6.51556 11.7221 6.50384 11.6478 6.50384 11.2885C6.50384 10.9135 6.51165 10.8588 6.61322 10.6674C6.82415 10.2689 7.19134 10.0111 7.65618 9.93691C7.789 9.91347 7.81243 9.89785 7.81243 9.81582C7.81243 9.69863 8.01165 9.4916 8.12493 9.4916C8.1679 9.4916 8.24993 9.53457 8.30072 9.58925Z" fill="white"/>
<path d="M7.51969 10.5664C7.10172 10.7109 6.92985 11.2617 7.16422 11.7109C7.24235 11.8633 7.46891 12.0156 7.66813 12.0508L7.81266 12.0781V11.293C7.81266 10.4141 7.83219 10.457 7.51969 10.5664Z" fill="white"/>
<path d="M8.39852 13.4353C8.39852 14.2869 8.3868 14.2478 8.64071 14.1775C9.3204 13.9861 9.35946 12.99 8.70321 12.7126C8.62118 12.6814 8.51961 12.654 8.47665 12.654C8.40243 12.654 8.39852 12.6775 8.39852 13.4353Z" fill="white"/>
<path d="M14.8829 10.2985C14.6368 10.3884 14.2892 10.7438 14.2072 10.9899C14.1173 11.2595 14.1212 11.6618 14.2189 11.9274C14.504 12.6891 15.5782 12.9235 16.2032 12.361C16.4767 12.1149 16.5822 11.8649 16.5822 11.4431C16.5822 11.0602 16.504 10.8493 16.2775 10.5954C16.0548 10.3493 15.8243 10.2556 15.4103 10.2438C15.1603 10.236 15.0079 10.2516 14.8829 10.2985Z" fill="white"/>
<path d="M14.863 13.2031C14.4373 13.3672 14.1716 13.7617 14.1482 14.2656C14.1248 14.6914 14.2107 14.918 14.488 15.1992C14.7498 15.4609 14.9685 15.5469 15.3709 15.5469C15.7341 15.5469 15.9685 15.4648 16.2068 15.25C16.4841 15 16.5818 14.7578 16.5818 14.3164C16.5818 14.0117 16.5662 13.9375 16.4763 13.7656C16.3435 13.5156 16.0662 13.2656 15.8318 13.1875C15.5779 13.1016 15.1091 13.1094 14.863 13.2031Z" fill="white"/>
<path d="M17.2383 15.3905C16.8867 15.4648 16.582 15.7069 16.4023 16.0546C16.3281 16.1991 16.3125 16.2929 16.3086 16.5819C16.3086 16.8905 16.3203 16.9608 16.418 17.1562C16.5508 17.4257 16.7734 17.6288 17.0664 17.7382C17.2422 17.8046 17.3477 17.8163 17.5977 17.8046C17.9805 17.7812 18.2383 17.664 18.4688 17.4023C18.6875 17.1523 18.7617 16.9062 18.7422 16.5077C18.7227 16.1483 18.5977 15.8554 18.3789 15.6757C18.0938 15.4335 17.6094 15.3124 17.2383 15.3905Z" fill="white"/>
</svg>
