<svg width="20" height="20" viewBox="0 0 20 20" fill="none" xmlns="http://www.w3.org/2000/svg">
<path d="M4.65625 1.32812C4.58594 1.37109 4.49609 1.46094 4.45312 1.53125C4.37891 1.65234 4.375 1.73047 4.375 2.70312V3.75H7.03125H9.6875V2.5V1.25H7.23828C4.85938 1.25 4.78125 1.25391 4.65625 1.32812Z" fill="white"/>
<path d="M10.3125 2.5V3.75H11.8008H13.293L13.4766 3.55859C13.7422 3.28125 13.9375 3.19141 14.3164 3.17578C14.6016 3.16016 14.6719 3.17188 15.0977 3.31641C15.3516 3.40625 15.5781 3.47656 15.5938 3.47656C15.6094 3.47656 15.625 3.06641 15.625 2.56641C15.625 1.73047 15.6172 1.64844 15.5469 1.53125C15.5039 1.46094 15.4141 1.37109 15.3438 1.32812C15.2188 1.25391 15.1406 1.25 12.7656 1.25H10.3125V2.5Z" fill="white"/>
<path d="M16.5312 2.57812C16.3438 2.69141 16.25 2.87109 16.25 3.11719C16.25 3.36719 16.2891 3.45703 16.4688 3.61328L16.6016 3.73047L16.3359 3.99609L16.0703 4.25781L15.3125 4.00391C14.5078 3.73438 14.2734 3.69922 14.0586 3.80859C13.9844 3.84766 13.5898 4.34375 12.9531 5.1875C12.4102 5.91406 11.9453 6.54297 11.9219 6.58984C11.8945 6.63672 11.875 6.76953 11.875 6.88281C11.875 7.26172 12.1133 7.5 12.4922 7.5C12.6055 7.5 12.75 7.47266 12.8164 7.44141C12.8867 7.40234 13.2344 6.97266 13.7578 6.27734C14.2109 5.67188 14.5898 5.16797 14.5977 5.15625C14.6055 5.14844 14.9414 5.25 15.3438 5.38281C16.0898 5.62891 16.3555 5.67188 16.5352 5.58203C16.582 5.55859 16.8242 5.33594 17.0742 5.08984L17.5273 4.64062L17.6133 4.76172C17.7344 4.92969 17.8867 5 18.1328 5C18.3789 5 18.5586 4.90625 18.6719 4.71875C18.7422 4.60156 18.75 4.51953 18.75 3.75C18.75 2.8125 18.7305 2.73828 18.4688 2.57812C18.3516 2.50781 18.2695 2.5 17.5 2.5C16.7305 2.5 16.6484 2.50781 16.5312 2.57812Z" fill="white"/>
<path d="M4.375 9.08203V13.7891H4.50391C4.57422 13.7891 4.92188 13.8867 5.27344 14.0039L5.91406 14.2188L6.34766 13.7891C6.87891 13.2656 7.06641 13.1641 7.50391 13.1641C7.75781 13.1641 7.83594 13.1797 8.03906 13.2812C8.29297 13.4102 8.46484 13.5781 8.60156 13.8398C8.67578 13.9766 8.69141 14.0664 8.69141 14.375C8.69141 14.6875 8.67578 14.7734 8.59766 14.9219C8.48828 15.1367 7.12109 16.5273 6.88672 16.6641C6.48047 16.9062 6.1875 16.9023 5.41406 16.6445C5.09375 16.5352 4.82422 16.4531 4.81641 16.4609C4.80859 16.4688 4.70703 16.6016 4.58984 16.7578L4.375 17.0469V17.6914C4.375 18.418 4.40625 18.5195 4.65625 18.6719C4.78125 18.7461 4.85938 18.75 7.23828 18.75H9.6875L9.67969 16.2227L9.66797 13.6953L9.53125 13.6641C8.80078 13.4883 8.22266 12.8594 8.17188 12.1914C8.15625 11.957 8.16406 11.9141 8.23828 11.8398C8.32422 11.7539 8.47656 11.7344 8.59375 11.7969C8.67188 11.8398 8.75 12.0312 8.75 12.1875C8.75 12.3477 8.9375 12.6836 9.11328 12.832C9.57812 13.2305 10.4219 13.2305 10.8867 12.832C11.375 12.418 11.375 11.6445 10.8867 11.2305C10.6719 11.0469 10.3984 10.9531 9.98047 10.918C9.37891 10.8711 8.98438 10.6953 8.62891 10.3242C8.39844 10.082 8.30078 9.91797 8.21875 9.61719L8.15234 9.375H7.0625C6.20703 9.375 5.94531 9.36328 5.83984 9.32031C5.69531 9.25781 5.63672 9.13281 5.67969 8.96094C5.73047 8.76953 5.86328 8.75 7.09766 8.75H8.22266L8.33203 8.51562C8.52734 8.10938 9.02344 7.71875 9.49219 7.59766L9.66797 7.55469L9.67969 5.96484L9.6875 4.375H7.03125H4.375V9.08203ZM8.53516 6.92969C8.77344 7.03125 8.77344 7.34375 8.53516 7.44531C8.33984 7.52734 6.03516 7.52734 5.83984 7.44531C5.60547 7.34766 5.60156 7.03125 5.83203 6.93359C6.01562 6.85156 8.34375 6.85156 8.53516 6.92969ZM8.53516 10.6797C8.77344 10.7812 8.77344 11.0938 8.53516 11.1953C8.33984 11.2773 6.03516 11.2773 5.83984 11.1953C5.60547 11.0977 5.60156 10.7812 5.83203 10.6836C6.01562 10.6016 8.34375 10.6016 8.53516 10.6797Z" fill="white"/>
<path d="M10.3203 5.96484L10.332 7.55469L10.4688 7.58594C11.1992 7.76172 11.7774 8.39062 11.8281 9.05859C11.8438 9.29297 11.836 9.33594 11.7617 9.41016C11.6758 9.49609 11.5235 9.51562 11.4063 9.45312C11.3281 9.41016 11.25 9.21875 11.25 9.0625C11.25 8.90234 11.0625 8.56641 10.8867 8.41797C10.5469 8.12891 9.93361 8.03516 9.48049 8.20312C8.50783 8.56641 8.50002 9.86719 9.46877 10.2305C9.57814 10.2695 9.82814 10.3164 10.0195 10.332C10.6094 10.3789 10.957 10.5234 11.3203 10.875C11.5703 11.1172 11.6953 11.3203 11.7813 11.6328L11.8477 11.875H12.9375C14.1328 11.875 14.2696 11.8945 14.3203 12.0859C14.3633 12.2578 14.3047 12.3828 14.1602 12.4453C14.0547 12.4883 13.7891 12.5 12.9024 12.5H11.7774L11.6875 12.6953C11.4961 13.1133 10.9805 13.5312 10.5117 13.6523L10.332 13.6953L10.3203 16.2227L10.3125 18.75H12.7617C15.1406 18.75 15.2188 18.7461 15.3438 18.6719C15.4141 18.6289 15.5039 18.5391 15.5469 18.4688C15.625 18.3398 15.625 18.2695 15.6133 12.2109L15.6055 6.08203L15.2149 5.94922C15.0039 5.87891 14.8164 5.83203 14.8008 5.85156C14.7891 5.86719 14.461 6.30078 14.0742 6.81641C13.2031 7.97656 13.0703 8.08203 12.4805 8.08203C12.0117 8.08594 11.6211 7.83984 11.4102 7.41406C11.3086 7.21094 11.2891 7.12891 11.2891 6.89062C11.2891 6.71094 11.3125 6.53906 11.3555 6.4375C11.3906 6.34375 11.7344 5.85156 12.1172 5.34375C12.5 4.83203 12.8125 4.40625 12.8125 4.39453C12.8125 4.38281 12.25 4.375 11.5625 4.375H10.3125L10.3203 5.96484ZM14.1602 13.8047C14.3047 13.8672 14.3633 13.9922 14.3203 14.1641C14.2696 14.3555 14.1446 14.375 12.8125 14.375C11.4805 14.375 11.3555 14.3555 11.3047 14.1641C11.2656 13.9961 11.3203 13.8672 11.457 13.8086C11.6406 13.7266 13.9688 13.7266 14.1602 13.8047ZM14.1602 15.6797C14.3047 15.7422 14.3633 15.8672 14.3203 16.0391C14.2696 16.2305 14.1446 16.25 12.8125 16.25C11.4805 16.25 11.3555 16.2305 11.3047 16.0391C11.2656 15.8711 11.3203 15.7422 11.457 15.6836C11.6406 15.6016 13.9688 15.6016 14.1602 15.6797Z" fill="white"/>
<path d="M7.20703 13.793C7.16406 13.8164 6.89062 14.0742 6.60156 14.3594L6.07422 14.8828L5.3125 14.6289C4.50781 14.3594 4.27344 14.3242 4.05859 14.4336C3.98828 14.4727 3.65625 14.8789 3.17969 15.5156C2.58594 16.3047 2.40234 16.5195 2.37891 16.4727C2.25781 16.2578 1.78125 16.1758 1.53125 16.3281C1.26953 16.4883 1.25 16.5625 1.25 17.5C1.25 18.2695 1.25781 18.3516 1.32812 18.4688C1.48828 18.7305 1.5625 18.75 2.5 18.75C3.26953 18.75 3.35156 18.7422 3.46875 18.6719C3.85938 18.4336 3.84375 17.7461 3.44141 17.5781C3.375 17.5508 3.32031 17.5195 3.32031 17.5078C3.32031 17.4922 4.51562 15.8789 4.59766 15.7812C4.60547 15.7734 4.94141 15.875 5.34375 16.0078C6.08984 16.2539 6.35547 16.2969 6.53516 16.207C6.65625 16.1445 8.00391 14.8047 8.07031 14.6797C8.10156 14.6211 8.125 14.4805 8.125 14.3672C8.125 13.9844 7.88672 13.75 7.5 13.75C7.38281 13.75 7.25 13.7734 7.20703 13.793Z" fill="white"/>
</svg>
