<svg width="20" height="20" viewBox="0 0 20 20" fill="none" xmlns="http://www.w3.org/2000/svg">
<path d="M9.60156 1.53125C8.46094 1.65234 7.39453 2.39062 6.88672 3.42187C6.62109 3.94922 6.52344 4.39062 6.52344 5.02344C6.52734 6.58984 7.58203 7.94922 9.12109 8.36719C9.375 8.4375 9.53906 8.45312 10 8.45312C10.4609 8.45312 10.625 8.4375 10.8789 8.36719C12.418 7.94922 13.4727 6.58984 13.4766 5.02344C13.4766 4.56641 13.4258 4.23047 13.3125 3.89453C12.8594 2.57422 11.7344 1.67578 10.3477 1.52734C10.1445 1.50781 9.96484 1.49219 9.94141 1.49609C9.92188 1.49609 9.76562 1.51172 9.60156 1.53125Z" fill="white"/>
<path d="M3.49228 4.76172C2.9454 4.85156 2.48056 5.08984 2.0665 5.50391C1.57821 5.99219 1.33993 6.53125 1.30087 7.22656C1.21884 8.71094 2.41025 9.96094 3.90634 9.96094C4.54696 9.96094 5.17978 9.71484 5.64853 9.28516C6.62509 8.39063 6.79696 6.99609 6.0665 5.89063C5.73837 5.39453 5.15243 4.97656 4.57431 4.82422C4.27743 4.75 3.76571 4.71875 3.49228 4.76172Z" fill="white"/>
<path d="M15.7618 4.75049C14.5586 4.9458 13.6641 5.84424 13.5079 7.01611C13.4258 7.61768 13.5704 8.25049 13.9024 8.76221C14.6329 9.8794 16.0626 10.2778 17.2461 9.6919C17.7969 9.41846 18.1719 9.03955 18.4415 8.49268C18.6485 8.06299 18.7227 7.69971 18.6993 7.22705C18.6602 6.53174 18.4219 5.99268 17.9336 5.5044C17.4454 5.02002 16.918 4.78174 16.2383 4.75049C16.0391 4.74268 15.8282 4.74268 15.7618 4.75049Z" fill="white"/>
<path d="M7.85943 9.18359C7.18755 9.27734 6.68364 9.52734 6.18755 10.0234C5.89458 10.3125 5.80083 10.4375 5.6563 10.7344C5.32036 11.3984 5.33208 11.2695 5.33208 14.8867C5.33208 18.0195 5.33208 18.0742 5.41021 18.207C5.45708 18.2812 5.55083 18.375 5.62505 18.4219C5.76177 18.5 5.80864 18.5 10.0001 18.5C14.1915 18.5 14.2383 18.5 14.3751 18.4219C14.4493 18.375 14.543 18.2812 14.5899 18.207C14.668 18.0742 14.668 18.0195 14.668 14.8867C14.668 11.2695 14.6797 11.3984 14.3438 10.7344C14.1016 10.25 13.6133 9.75 13.1368 9.50391C12.4922 9.17187 12.4844 9.16797 10.1563 9.16016C9.02739 9.15625 7.99614 9.16797 7.85943 9.18359Z" fill="white"/>
<path d="M2.34803 10.707C1.4496 10.8828 0.707408 11.4492 0.293345 12.2734C0.000376313 12.8594 -0.00352994 12.9062 0.00818882 15.1992L0.0199076 17.2109L0.164439 17.5039C0.348033 17.8789 0.605845 18.1367 0.96522 18.3086C1.34803 18.4922 1.55506 18.5117 3.04335 18.5156H4.30506L4.27381 18.3672C4.25428 18.2891 4.23866 16.6914 4.23866 14.8242V11.4258L4.3285 11.1055C4.37538 10.9297 4.42616 10.7578 4.43788 10.7266C4.46131 10.6719 4.35975 10.6641 3.49256 10.668C2.95741 10.6719 2.44178 10.6875 2.34803 10.707Z" fill="white"/>
<path d="M15.5628 10.7227C15.5745 10.7578 15.6253 10.9297 15.6721 11.1055L15.762 11.4258V14.8242C15.762 16.6914 15.7464 18.2891 15.7268 18.3711L15.6956 18.5156H16.9573C18.4456 18.5117 18.6526 18.4922 19.0354 18.3086C19.3948 18.1367 19.6526 17.8789 19.8362 17.5039L19.9807 17.2109L19.9925 15.1992C20.0042 12.9063 20.0003 12.8594 19.7073 12.2734C19.3401 11.543 18.7542 11.043 17.9495 10.7773C17.6956 10.6953 17.594 10.6875 16.6057 10.6719C15.6214 10.6602 15.5393 10.6641 15.5628 10.7227Z" fill="white"/>
</svg>
